PathFileType	4	(X/Y/Z)	path1_20_0-911.trc
DataRate	CameraRate	NumFrames	NumMarkers	Units	OrigDataRate	OrigDataStartFrame	OrigNumFrames
30	30	7	22	m	30	113	911
Frame#	Time	Hip			RHip			RKnee			RAnkle			RBigToe			RSmallToe			RHeel			LHip			LKnee			LAnkle			LBigToe			LSmallToe			LHeel			Neck			Head			Nose			RShoulder			RElbow			RWrist			LShoulder			LElbow			LWrist		
		X1	Y1	Z1	X2	Y2	Z2	X3	Y3	Z3	X4	Y4	Z4	X5	Y5	Z5	X6	Y6	Z6	X7	Y7	Z7	X8	Y8	Z8	X9	Y9	Z9	X10	Y10	Z10	X11	Y11	Z11	X12	Y12	Z12	X13	Y13	Z13	X14	Y14	Z14	X15	Y15	Z15	X16	Y16	Z16	X17	Y17	Z17	X18	Y18	Z18	X19	Y19	Z19	X20	Y20	Z20	X21	Y21	Z21	X22	Y22	Z22
114	3.8	2.505388654805961	0.8342248805426957	0.6114536381569762	2.5049283419137045	0.7960288077055176	0.5321698020940695	2.4801674080799545	0.4649912410295296	0.5252453068630745	2.5391538788414842	0.10145823318464169	0.5618790836342842	2.344885302528985	0.015601043164880016	0.5354914789186723	2.382755523932076	0.0235961162991212	0.4712637029118932	2.5877476568366506	0.03359079563237995	0.5651633986721719	2.5023154375728027	0.7937892881877396	0.6935025010765336	2.5115681761283923	0.43706947138766616	0.6638954315750716	2.5496787561853127	0.09129454540373513	0.6648093432032749	2.3736275322917644	0.01723451668089139	0.6850756555396111	2.408937390999325	0.021321881473536804	0.7408554684661741	2.583035197144297	0.036574203750538846	0.6737523140342211	2.470595144976073	1.4722257310419424	0.6323789727504869	2.4460782219367236	1.716158257160796	0.5747545910542888	2.338532670458634	1.6108985251213	0.6053813774269436	2.524845915738578	1.3699214684642442	0.45622240603041575	2.517934714244662	1.0761586413674324	0.40901568902833957	2.485407917589972	0.8458369682581327	0.4007029526182149	2.485673969952487	1.3498581842256046	0.7730667750602062	2.502293814187265	1.067173684253886	0.8227236231381179	2.488623830695014	0.8339679694343414	0.8238143723862317
115	3.8333333333333335	2.5054443671185562	0.8343115769916956	0.6117549457346144	2.5056151023167446	0.7964606600453051	0.532894549958453	2.4801115502634783	0.46531045439743207	0.5255946163060379	2.5385668158415187	0.10226837457884996	0.5609477560652334	2.3454859757752917	0.01698395553251573	0.5358556403561515	2.382943736284433	0.023552641621584255	0.47130884276253093	2.5869474423868084	0.03393067668090888	0.5633978028416798	2.502799601621256	0.7946372380179334	0.6944174266516538	2.5114139960458535	0.4377150916080639	0.6645083034700249	2.5500325742327576	0.09126311294757665	0.6646084430830814	2.3731135990041055	0.0157807766444385	0.684477230989173	2.4085124995030385	0.021263271791338585	0.7411888168864228	2.5844801002692805	0.03613188707734996	0.6749432842998356	2.470952577521063	1.471976090046808	0.6325714881911333	2.445672043128781	1.716713676963189	0.5754679127088158	2.338366108802591	1.6107252744414344	0.6050819477503336	2.5251491062923104	1.3696623243508292	0.4560466875502689	2.5201474889728788	1.0753384223198896	0.4113618627349068	2.48572649792676	0.8454128468148577	0.4009096056762609	2.4864773541197263	1.3504424681591916	0.7723626288809934	2.5025691697094365	1.0677837944648134	0.8232587381115352	2.488902859796226	0.8342475759622701	0.8242647699007953
116	3.8666666666666663	2.5055254745377074	0.8342707000914011	0.6120182032534689	2.506237841556543	0.7965805524112307	0.5334758199545878	2.479934962555839	0.465480480686107	0.5259504129523082	2.5380348164276443	0.102879166262071	0.5600833384637353	2.345484999375044	0.017425290250235106	0.5355360940052063	2.3830214211048744	0.02345363508709624	0.47135378483372947	2.5862161413174345	0.03415743311497776	0.5618974465791323	2.503255817186333	0.7948659849974767	0.6950557358975616	2.5114272567885205	0.43799819917721594	0.6651454281339539	2.5501329420747383	0.09122879000501313	0.6645084131234542	2.37277514565001	0.013965208868479535	0.6835720467087584	2.408081944095483	0.021174751600301103	0.7413754533839201	2.5851188258465667	0.03591106006076751	0.6755286052636376	2.4711333393121655	1.4718636012002557	0.6326593657894419	2.4455000537293805	1.7168698334447783	0.5760139540330286	2.338334643907595	1.610646563156222	0.6049564829058662	2.5254649563932037	1.3694222346069787	0.4559006628087734	2.521610407034054	1.0748673456024145	0.41261358376737456	2.4860478084918047	0.8450788092862515	0.4011704956300112	2.486009029963619	1.3508586041367046	0.7729219169341206	2.5027899676656737	1.0683852828801577	0.8237407145269785	2.489194512911636	0.8344168751210096	0.8245946879145852
117	3.9	2.505619306463871	0.8341681773501312	0.612239206868456	2.5066551095748637	0.7963958342370787	0.5338535816552566	2.479671355937445	0.46552186572069065	0.5262919858663948	2.5377048925771186	0.1031957134609201	0.5594313807494115	2.3448759034804394	0.01694233124215625	0.5345621310450954	2.382934130834236	0.023359037726896018	0.47135456653294205	2.5857406848012516	0.034264734582654756	0.5608786726581058	2.503581168521966	0.7945096396881737	0.6953492390151151	2.5116177963022266	0.43783194804808306	0.6657241316957615	2.549870871611415	0.0912878300728817	0.6645934526182844	2.3726548662037517	0.012465077308472669	0.6826513481471306	2.4077468578046326	0.021159720124625424	0.7413828350908345	2.584326451617933	0.036113445214002185	0.6751682854209848	2.4711864986089034	1.471839335852699	0.6327153981825362	2.4457006243872534	1.7166675499541957	0.5765535515500864	2.3385398127724284	1.6106664573037397	0.6052160440471183	2.5258330861673124	1.3691984928056373	0.4558905205122028	2.5222247783699236	1.0747652793523845	0.4128624200206735	2.4863756220601774	0.8448872014685516	0.4014375812297139	2.4850184682924716	1.3510941586336536	0.7738973457833054	2.502956054653333	1.0688248967786684	0.8240637607735924	2.4894298826404406	0.834355178894707	0.8248179872042752
118	3.933333333333333	2.5057851983001656	0.8340562017791727	0.6123973833867882	2.50682160123998	0.7959715238585039	0.5340103718047093	2.479352160746105	0.4655586306621337	0.5266286982027818	2.5376246860814597	0.1032459079665255	0.5590250015312798	2.344008508855122	0.01612999720838572	0.5332131356036004	2.3827229068118982	0.02334447236235862	0.4712854188369178	2.5855197693831897	0.034247364918955144	0.5599331672483318	2.503748001511238	0.7937288708326948	0.6953289281532616	2.511927856409353	0.4372864449985585	0.6662391090261932	2.5493718648023385	0.09143049140897583	0.6648458128028393	2.3727211931114116	0.011945330565122316	0.68208177351341	2.4075898972732817	0.02125987832529263	0.7412229271661097	2.582382744702907	0.0366939208108616	0.674152521374114	2.4711987787091267	1.4718571437061678	0.63282851518467	2.4462152602591583	1.7162437636667864	0.5770523903567368	2.3389702756232884	1.6107548037789756	0.6060527253343577	2.5262205086152005	1.368983232961624	0.45600793106174436	2.522108005187955	1.0748870788810936	0.4123823893752898	2.486695459658755	0.8448064055976339	0.40165625805752014	2.4838102122399826	1.351077429123872	0.7750513969120675	2.50310534833415	1.068952923659522	0.8241993730124664	2.4896037061229532	0.8340225854204102	0.8249794090677971
119	3.966666666666667	2.506102246440083	0.8339390713784076	0.6124960873877219	2.5068280682772577	0.7953988843343515	0.5339984816772902	2.4790327875959455	0.46571393759154445	0.5269857372578446	2.537739490925349	0.10316265524977368	0.5588220277108952	2.343241633024129	0.015565152315015943	0.5318253396948338	2.3824915463005993	0.023440093140829826	0.47116423337601154	2.5854579757844314	0.034140678094995665	0.5585872102068316	2.5037602374858956	0.7927298955293289	0.6951302530544037	2.5122078121763756	0.43652558549054704	0.6666796528572351	2.5487941173331072	0.09160488864047128	0.6651646538458416	2.372906035392488	0.012567513186982147	0.682034138939283	2.4076447094578084	0.021430838907466592	0.7409286428776205	2.5800021511926006	0.03747486220662992	0.6730699557608248	2.471233053004435	1.4719134593770027	0.6330435194135463	2.4469149580299336	1.7157503394755296	0.5774041754539508	2.3395685797444017	1.6108911336925245	0.6075039429790291	2.526579177823165	1.3688022900415815	0.45620372151207184	2.52149480803062	1.0750607451646232	0.411504298705896	2.486991200510155	0.8447770108568908	0.40180415391281127	2.481977994306488	1.3506933324764339	0.7769742263512945	2.5033109857161646	1.0687114846835764	0.8242272022343761	2.4897839732083407	0.8335051957680237	0.8251307451034039
120	4.0	2.506570688063754	0.8337991253602197	0.6125813181341533	2.50682379508084	0.7947841741605824	0.5339162682070271	2.478799125115708	0.46597260282572434	0.5273522039857713	2.5379893425176396	0.10305203140029831	0.5588101413416714	2.342741450624622	0.015402700080613053	0.5306548970667514	2.382315189069775	0.023614424898461557	0.4710350801445013	2.585507731319384	0.03400020587761487	0.5568866527808757	2.5036195573287103	0.7917203725652352	0.6949035194155052	2.5122987374799237	0.43569330178391075	0.6669899069064875	2.5481772309849697	0.09180496564972375	0.6654815482560874	2.373121754237129	0.014000809188403181	0.6824139449583783	2.4078752355174067	0.02160521574395224	0.7405421432042644	2.577719540088599	0.038304648300052146	0.6722877077758798	2.4712957101185467	1.4720223062946907	0.633311627485333	2.44770434260327	1.7153006645879003	0.5775152371649594	2.3402721727323117	1.6110682933756089	0.609255818816373	2.5269002871730066	1.3686846262443255	0.45641886106203844	2.5210124545737576	1.0751407241899893	0.4110663281274532	2.4872603932573836	0.8447711213492317	0.40190391222519106	2.47887982677789	1.3498965069022608	0.7804206403012165	2.503644309857849	1.0681815761868503	0.8242710484588506	2.4900353636026664	0.8329911254268227	0.8253214584818809
